<?xml version="1.0" encoding="UTF-8"?>
<!DOCTYPE svg PUBLIC "-//W3C//DTD SVG 1.1//EN" "http://www.w3.org/Graphics/SVG/1.1/DTD/svg11.dtd">
<!-- Creator: CorelDRAW 2021.5 -->
<svg xmlns="http://www.w3.org/2000/svg" xml:space="preserve" width="32px" height="23px" version="1.1" style="shape-rendering:geometricPrecision; text-rendering:geometricPrecision; image-rendering:optimizeQuality; fill-rule:evenodd; clip-rule:evenodd"
viewBox="0 0 32 22.63"
 xmlns:xlink="http://www.w3.org/1999/xlink"
 xmlns:xodm="http://www.corel.com/coreldraw/odm/2003">
 <defs>
  <style type="text/css">
   <![CDATA[
    .fil1 {fill:#FEFEFE}
    .fil0 {fill:#3266DF}
    .fil2 {fill:#3266DF;fill-rule:nonzero}
   ]]>
  </style>
 </defs>
 <g id="Layer_x0020_1">
  <metadata id="CorelCorpID_0Corel-Layer"/>
  <g id="_2119358300384">
   <rect class="fil0" x="10.24" y="5.56" width="11.52" height="11.52" rx="2" ry="2"/>
   <path class="fil1" d="M19.2 8.98l0 5.84c0,0.26 -0.21,0.46 -0.46,0.46l-5.48 0c-0.25,0 -0.46,-0.2 -0.46,-0.46l0 -5.84 6.4 0zm-5.94 -1.62l5.48 0c0.25,0 0.46,0.21 0.46,0.46l0 0.97 -6.4 0 0 -0.97c0,-0.25 0.21,-0.46 0.46,-0.46zm4.21 0.46c0.15,0 0.26,0.12 0.26,0.26 0,0.14 -0.11,0.25 -0.26,0.25 -0.14,0 -0.25,-0.11 -0.25,-0.25 0,-0.14 0.11,-0.26 0.25,-0.26zm0.83 0c0.15,0 0.26,0.12 0.26,0.26 0,0.14 -0.11,0.25 -0.26,0.25 -0.14,0 -0.25,-0.11 -0.25,-0.25 0,-0.14 0.11,-0.26 0.25,-0.26zm-2.3 2.46c0.89,0 1.62,0.73 1.62,1.63 0,0.89 -0.73,1.62 -1.62,1.62 -0.9,0 -1.62,-0.73 -1.62,-1.62 0,-0.9 0.72,-1.63 1.62,-1.63zm0 0.28c0.51,0 0.95,0.28 1.18,0.7 -0.14,0.17 -0.23,0.4 -0.23,0.65 0,0.24 0.09,0.47 0.23,0.64 -0.23,0.42 -0.67,0.7 -1.18,0.7 -0.75,0 -1.35,-0.6 -1.35,-1.34 0,-0.75 0.6,-1.35 1.35,-1.35zm0 -0.77c1.17,0 2.12,0.95 2.12,2.12 0,1.16 -0.95,2.11 -2.12,2.11 -1.17,0 -2.12,-0.95 -2.12,-2.11 0,-1.17 0.95,-2.12 2.12,-2.12z"/>
   <path class="fil2" d="M13.38 8.31l0 -0.52 0.12 0 0 0.42 0.26 0 0 0.1 -0.38 0zm0.68 0l0 -0.08 -0.01 -0.02 0 -0.14c0,-0.02 -0.01,-0.04 -0.02,-0.05 -0.02,-0.02 -0.04,-0.02 -0.07,-0.02 -0.02,0 -0.04,0 -0.06,0.01 -0.02,0 -0.04,0.01 -0.05,0.02l-0.04 -0.08c0.02,-0.01 0.04,-0.02 0.07,-0.03 0.03,-0.01 0.07,-0.01 0.1,-0.01 0.06,0 0.1,0.01 0.14,0.04 0.03,0.03 0.05,0.07 0.05,0.13l0 0.23 -0.11 0zm-0.12 0c-0.03,0 -0.06,0 -0.08,-0.01 -0.02,-0.01 -0.04,-0.03 -0.05,-0.05 -0.01,-0.01 -0.02,-0.04 -0.02,-0.06 0,-0.02 0.01,-0.04 0.02,-0.06 0.01,-0.02 0.03,-0.03 0.05,-0.04 0.03,-0.01 0.06,-0.02 0.1,-0.02l0.11 0 0 0.07 -0.1 0c-0.02,0 -0.04,0.01 -0.05,0.01 -0.01,0.01 -0.02,0.02 -0.02,0.04 0,0.01 0.01,0.02 0.02,0.03 0.01,0.01 0.03,0.02 0.05,0.02 0.02,0 0.03,-0.01 0.05,-0.02 0.01,-0.01 0.03,-0.02 0.03,-0.04l0.02 0.05c-0.01,0.03 -0.02,0.05 -0.05,0.06 -0.02,0.02 -0.05,0.02 -0.08,0.02zm0.5 0c-0.04,0 -0.07,0 -0.09,-0.02 -0.03,-0.01 -0.05,-0.03 -0.06,-0.06 -0.02,-0.02 -0.02,-0.05 -0.02,-0.1l0 -0.22 0.11 0 0 0.21c0,0.03 0.01,0.05 0.02,0.07 0.02,0.02 0.04,0.02 0.06,0.02 0.02,0 0.04,0 0.05,-0.01 0.01,-0.01 0.02,-0.02 0.03,-0.03 0.01,-0.02 0.01,-0.04 0.01,-0.06l0 -0.2 0.12 0 0 0.4 -0.11 0 0 -0.11 0.02 0.03c-0.01,0.03 -0.03,0.05 -0.06,0.06 -0.03,0.02 -0.05,0.02 -0.08,0.02zm0.57 -0.4c0.03,0 0.06,0 0.09,0.01 0.02,0.02 0.04,0.04 0.06,0.06 0.01,0.03 0.02,0.06 0.02,0.1l0 0.23 -0.12 0 0 -0.21c0,-0.03 0,-0.06 -0.02,-0.07 -0.01,-0.02 -0.03,-0.03 -0.06,-0.03 -0.02,0 -0.03,0.01 -0.05,0.02 -0.01,0 -0.02,0.02 -0.03,0.03 -0.01,0.02 -0.01,0.04 -0.01,0.06l0 0.2 -0.12 0 0 -0.4 0.11 0 0 0.11 -0.02 -0.03c0.02,-0.03 0.04,-0.05 0.06,-0.06 0.03,-0.02 0.06,-0.02 0.09,-0.02zm0.44 0.4c-0.03,0 -0.07,-0.01 -0.1,-0.02 -0.03,-0.02 -0.05,-0.04 -0.07,-0.07 -0.02,-0.03 -0.02,-0.07 -0.02,-0.11 0,-0.04 0,-0.08 0.02,-0.11 0.02,-0.03 0.04,-0.05 0.07,-0.07 0.03,-0.02 0.07,-0.02 0.1,-0.02 0.04,0 0.07,0 0.09,0.02 0.02,0.01 0.04,0.03 0.06,0.06 0.01,0.03 0.02,0.07 0.02,0.12 0,0.04 -0.01,0.08 -0.02,0.11 -0.01,0.03 -0.03,0.06 -0.06,0.07 -0.02,0.01 -0.05,0.02 -0.09,0.02zm0.02 -0.09c0.02,0 0.04,-0.01 0.05,-0.02 0.02,0 0.03,-0.02 0.04,-0.03 0.01,-0.02 0.01,-0.04 0.01,-0.06 0,-0.02 0,-0.04 -0.01,-0.06 -0.01,-0.02 -0.02,-0.03 -0.04,-0.04 -0.01,-0.01 -0.03,-0.01 -0.05,-0.01 -0.02,0 -0.03,0 -0.05,0.01 -0.01,0.01 -0.03,0.02 -0.04,0.04 0,0.02 -0.01,0.04 -0.01,0.06 0,0.02 0.01,0.04 0.01,0.06 0.01,0.01 0.03,0.03 0.04,0.03 0.02,0.01 0.03,0.02 0.05,0.02zm0.11 0.09l0 -0.08 0 -0.12 -0.01 -0.12 0 -0.23 0.12 0 0 0.55 -0.11 0zm0.21 0l0 -0.4 0.11 0 0 0.11 -0.02 -0.03c0.02,-0.03 0.04,-0.05 0.06,-0.06 0.03,-0.02 0.06,-0.02 0.1,-0.02l0 0.1c-0.01,0 -0.01,0 -0.02,0 0,0 -0.01,0 -0.01,0 -0.03,0 -0.06,0.01 -0.08,0.03 -0.02,0.01 -0.02,0.04 -0.02,0.08l0 0.19 -0.12 0zm0.31 0l0 -0.4 0.12 0 0 0.4 -0.12 0zm0.06 -0.45c-0.02,0 -0.04,-0.01 -0.05,-0.02 -0.01,-0.01 -0.02,-0.03 -0.02,-0.05 0,-0.02 0.01,-0.03 0.02,-0.04 0.01,-0.01 0.03,-0.02 0.05,-0.02 0.02,0 0.04,0 0.05,0.02 0.02,0.01 0.02,0.02 0.02,0.04 0,0.02 0,0.04 -0.02,0.05 -0.01,0.01 -0.03,0.02 -0.05,0.02zm0.11 0.45l0.18 -0.24 0 0.07 -0.17 -0.23 0.13 0 0.11 0.15 -0.05 0 0.11 -0.15 0.12 0 -0.17 0.23 0 -0.07 0.18 0.24 -0.13 0 -0.12 -0.16 0.05 0.01 -0.11 0.15 -0.13 0z"/>
  </g>
 </g>
</svg>
